<?xml version="1.0" standalone="no"?><!DOCTYPE svg PUBLIC "-//W3C//DTD SVG 1.1//EN" "http://www.w3.org/Graphics/SVG/1.1/DTD/svg11.dtd"><svg t="1607592750395" class="icon" viewBox="0 0 1077 1024" version="1.1" xmlns="http://www.w3.org/2000/svg" p-id="3518" xmlns:xlink="http://www.w3.org/1999/xlink" width="210.3515625" height="200"><defs><style type="text/css"></style></defs><path d="M1034.992165 1024H42.226804a42.226804 42.226804 0 0 1-42.226804-42.226804V42.226804A42.226804 42.226804 0 0 1 42.226804 0h992.765361a42.226804 42.226804 0 0 1 42.226804 42.226804v939.546392a42.226804 42.226804 0 0 1-42.226804 42.226804zM84.453608 939.546392h908.311753V84.453608H84.453608z" p-id="3519"></path><path d="M373.218969 1024a42.226804 42.226804 0 0 1-42.226804-42.226804V55.132371a42.226804 42.226804 0 0 1 84.453608 0V981.773196a42.226804 42.226804 0 0 1-42.226804 42.226804zM704.065979 1024a42.226804 42.226804 0 0 1-42.226804-42.226804V55.132371a42.226804 42.226804 0 0 1 84.453609 0V981.773196a42.226804 42.226804 0 0 1-42.226805 42.226804zM503.581031 503.858144h84.453608v315.909279h-84.453608zM836.460206 503.858144h84.453608v315.909279h-84.453608zM150.314227 343.976907h114.724948v84.453608h-114.724948zM150.314227 166.070103h114.724948v84.453608h-114.724948z" p-id="3520"></path></svg>